<?xml version="1.0" encoding="UTF-8"?>
<svg width="44px" height="24px" viewBox="0 0 44 24" version="1.1" xmlns="http://www.w3.org/2000/svg" xmlns:xlink="http://www.w3.org/1999/xlink">
    <!-- Generator: Sketch 43.1 (39012) - http://www.bohemiancoding.com/sketch -->
    <title>谷歌@2x</title>
    <desc>Created with Sketch.</desc>
    <defs></defs>
    <g id="Page-1" stroke="none" stroke-width="1" fill="none" fill-rule="evenodd">
        <g id="footer" transform="translate(-849.000000, -325.000000)">
            <g id="Page-1" transform="translate(849.000000, 325.000000)">
                <path d="M11.1264368,23.7001172 L11.1264368,3.96308276 C11.1264368,2.94855402 11.9487816,2.12646207 12.9633103,2.12646207 L31.0366897,2.12646207 C32.0512184,2.12646207 32.8735632,2.94855402 32.8735632,3.96308276 L32.8735632,17.7568299 C32.8735632,18.7713586 32.0512184,19.5937034 31.0366897,19.5937034 L16.2451034,19.5937034 L11.1264368,23.7001172 Z" id="Stroke-1" fill="#ADAFB4"></path>
                <path d="M31.0227057,23.7868023 L31.0227057,5.60443448 C31.0227057,4.73783678 30.320223,4.03510115 29.4533724,4.03510115 L14.5755563,4.03510115 C13.7087057,4.03510115 13.006223,4.73783678 13.006223,5.60443448 L13.006223,16.2600207 C13.006223,17.1268713 13.7087057,17.829354 14.5755563,17.829354 L23.8218782,17.829354 L31.0227057,23.7868023 Z" id="Stroke-3" fill="#D8D8D8"></path>
                <path d="M25.0508943,11.2591931 C25.7306184,11.2591931 26.2816299,10.7081816 26.2816299,10.0287103 C26.2816299,9.34898621 25.7306184,8.79797471 25.0508943,8.79797471 C24.3711701,8.79797471 23.8204115,9.34898621 23.8204115,10.0287103 C23.8204115,10.7081816 24.3711701,11.2591931 25.0508943,11.2591931 Z" id="Stroke-5" fill="#333844"></path>
                <path d="M25.0159724,11.8563034 C23.1601333,11.8563034 22.4338805,13.2683494 22.4338805,13.2683494 L22.4338805,14.1857747 L27.436731,14.1857747 L27.436731,13.2683494 C27.436731,13.2683494 26.7913977,11.8563034 25.0159724,11.8563034 Z" id="Stroke-7" fill="#333844"></path>
                <path d="M20.1781471,10.5706943 C21.152469,10.5706943 21.9421931,9.78097011 21.9421931,8.80664828 C21.9421931,7.83257931 21.152469,7.0426023 20.1781471,7.0426023 C19.2038253,7.0426023 18.4141011,7.83257931 18.4141011,8.80664828 C18.4141011,9.78097011 19.2038253,10.5706943 20.1781471,10.5706943 Z" id="Stroke-9" fill="#333844"></path>
                <path d="M20.2937103,11.1781977 C17.6332276,11.1781977 16.5921471,13.2024506 16.5921471,13.2024506 L16.5921471,14.1858759 L23.7641471,14.1858759 L23.7641471,13.2024506 C23.7641471,13.2024506 22.8386299,11.1781977 20.2937103,11.1781977 Z" id="Stroke-11" fill="#333844"></path>
            </g>
        </g>
    </g>
</svg>